<svg width="35" height="35" viewBox="0 0 35 35" fill="none" xmlns="http://www.w3.org/2000/svg">
<g clip-path="url(#clip0_32_428)">
<path d="M17.5001 10.2084C13.4751 10.2084 10.2084 13.4751 10.2084 17.5001C10.2084 21.5251 13.4751 24.7917 17.5001 24.7917C21.5251 24.7917 24.7917 21.5251 24.7917 17.5001C24.7917 13.4751 21.5251 10.2084 17.5001 10.2084ZM17.5001 2.91675C9.45008 2.91675 2.91675 9.45008 2.91675 17.5001C2.91675 25.5501 9.45008 32.0834 17.5001 32.0834C25.5501 32.0834 32.0834 25.5501 32.0834 17.5001C32.0834 9.45008 25.5501 2.91675 17.5001 2.91675ZM17.5001 29.1667C11.0542 29.1667 5.83341 23.9459 5.83341 17.5001C5.83341 11.0542 11.0542 5.83341 17.5001 5.83341C23.9459 5.83341 29.1667 11.0542 29.1667 17.5001C29.1667 23.9459 23.9459 29.1667 17.5001 29.1667Z" fill="#E60000"/>
</g>
<defs>
<clipPath id="clip0_32_428">
<rect width="35" height="35" fill="white"/>
</clipPath>
</defs>
</svg>
